<svg xmlns:dc="http://purl.org/dc/elements/1.1/" xmlns:cc="http://creativecommons.org/ns#" xmlns:rdf="http://www.w3.org/1999/02/22-rdf-syntax-ns#" xmlns:svg="http://www.w3.org/2000/svg" xmlns="http://www.w3.org/2000/svg" xmlns:sodipodi="http://sodipodi.sourceforge.net/DTD/sodipodi-0.dtd" xmlns:inkscape="http://www.inkscape.org/namespaces/inkscape" width="34" height="45.744274" id="svg12696" version="1.1" inkscape:version="0.47 r22583">
  <g id="layer1" transform="translate(-40.580182,-350.81583)">
    <g transform="matrix(3.9377011,0,0,-3.9377011,-250.19148,712.26529)" id="g12647">
      <path style="" d="m 82.169,83.467 c -0.656,-0.764 -1.894,-2.016 -3.808,-2.016 -2.605,0 -4.518,1.77 -4.518,4.791 0,2.773 2.287,4.31 3.768,4.882 l 0.122,-0.061 c -1.397,-0.926 -2.148,-2.047 -2.148,-4 0,-1.723 0.618,-2.95 1.55,-3.667 l 0.314,0.213 0,4.315 c 0,0.779 -0.141,1.326 -0.375,1.517 l 0,0.063 c 1.145,0.535 2.33,1.377 3.151,2.127 0.253,-0.296 0.567,-0.426 0.962,-0.426 0.43,0 0.719,0.152 0.911,0.293 l 0.071,-0.06 c -0.038,-0.881 -0.506,-1.701 -1.61,-1.701 -0.689,0 -1.064,0.232 -1.408,0.628 l -0.051,-0.01 0,-5.835 c -0.539,-0.302 -1.419,-0.905 -1.843,-1.225 0.631,-0.436 1.551,-0.516 2.492,-0.516 0.88,0 1.661,0.344 2.37,0.839 l 0.05,-0.151 z"/>
    </g>
  </g>
</svg>
