<svg xmlns:svg="http://www.w3.org/2000/svg" xmlns="http://www.w3.org/2000/svg" version="1.0" viewBox="7 6 19.70134994 19" id="svg3553" style="&#10;    width: 100px;&#10;    height: 100px;&#10;">
  <path d="M 24.50749,21.1275 C 23.32499,22.48 20.62,24.84625 17.40874,24.84625 C 12.67624,24.84625 9.12624,21.635 9.12624,16.0575 C 9.12624,10.98625 13.35249,8.1125 16.05624,7.09875 L 16.22624,7.2675 C 13.68999,8.95875 12.3375,10.98625 12.3375,14.535 C 12.3375,17.7475 13.35249,19.945 14.87375,21.2975 L 15.54999,20.78875 C 16.22624,20.45125 16.22624,19.945 16.22624,19.09875 L 16.22624,10.98625 C 16.22624,10.14125 16.05624,9.80375 15.54999,9.465 L 15.54999,9.29625 C 17.23999,8.45125 19.26875,7.09875 20.62,6.085 C 21.12749,6.59125 21.63499,6.93 22.48,6.93 C 23.15625,6.93 23.66249,6.59125 24.00124,6.4225 C 24.00124,8.1125 23.15625,9.29625 21.46499,9.29625 L 20.78874,9.29625 L 20.78874,22.31 C 22.14249,22.31 23.49374,21.2975 24.33875,20.95875 L 24.50749,21.1275 z M 20.45125,22.48 L 20.45125,9.1275 C 19.94375,8.95875 19.60499,8.78875 19.26875,8.45125 L 19.26875,8.62 L 19.26875,17.07125 C 19.26875,18.5925 19.09875,19.09875 17.07124,20.45125 L 15.38124,21.46625 C 16.56499,22.31 18.25499,22.48 19.94375,22.48 L 20.45125,22.48" id="path3233" style="fill: black;fill-opacity:1;fill-rule:evenodd;stroke:none;"/>
</svg>
