<svg xmlns:dc="http://purl.org/dc/elements/1.1/" xmlns:cc="http://creativecommons.org/ns#" xmlns:rdf="http://www.w3.org/1999/02/22-rdf-syntax-ns#" xmlns:svg="http://www.w3.org/2000/svg" xmlns="http://www.w3.org/2000/svg" xmlns:xlink="http://www.w3.org/1999/xlink" version="1.1" id="svg4421" x="0px" y="0px" viewBox="-44 74.8 20 20" style="width: 100px;height: 100px;" xml:space="preserve">
<g>
	<path class="st0" d="M-30.2,90.2c-0.3,0-1.4-0.5-2.7-0.5c-0.2,0-0.3,0-0.5,0V80c0.3,0.1,0.8,0.1,1.2,0.1c1.3,0,2.6-1.1,2.6-2.4   c0-0.2-0.1-0.4-0.3-0.4c-0.1,0-0.2,0.1-0.2,0.2c0,0.1,0.1,0.2,0.1,0.3c0,0.3-0.4,0.4-1.1,0.4c-0.9,0-1.8-0.7-2.5-1.3l-3.4,2.8   c0-0.9,0.4-1.6,1.1-2.2l-0.2-0.2c-2,1-3,2.3-3,4.7c0,2.3,1.3,3.5,1.3,5.8s-0.9,4-1.6,4.8l0.2,0.2c0.7-0.4,3.3-1,5.3-1   c1.4,0,2.4,0.4,3.2,1.1l1.8-3.6l-0.2-0.1C-29.6,89.9-29.8,90.2-30.2,90.2z M-34,89.7c-1,0.2-2.5,0.5-3.5,1.1h-0.1   c0.9-0.9,2-2.5,2-4.1c0-2.3-1.5-3.6-1.5-6.4l1.8-1.5c0.3,0.5,0.8,0.9,1.3,1.1V89.7z"/>	
</g>
</svg>