<svg xmlns="http://www.w3.org/2000/svg" viewBox="0 0 150 150"><defs><style>.a{fill:#000000;}</style></defs><title>-icons</title><path class="a" d="M95.14,29.28a17,17,0,0,1,9.06,3.91c3,2.93,3.72,7.41,2.66,11.46-0.94,3.63-2,5.51-5.7,8A15,15,0,0,1,92.91,55V70.66l7.64,6.18L92.91,83v21.38A34.72,34.72,0,0,0,105.3,90.18s0.2-.55.64-1.57c0.43,2.64.17,8-2.8,14.78a27.55,27.55,0,0,1-11.43,12.95c-5.89,3.25-10.84,4.6-15.58,4.73a32.4,32.4,0,0,1-7.55-.75A32.89,32.89,0,0,1,47,105.42a35.84,35.84,0,0,1-5.22-20.11C42.1,70.86,52.85,58.4,65.27,53.72a12.73,12.73,0,0,1,4.27-1.12c-1,.67-2.13,1.53-3.54,2.45-4,2.66-7.44,7.89-8.89,11.9L81.22,56.21V89.92L61.78,99.63c2.21,3.1,8.94,7.74,14.7,8.39,9.78,1.07,15.54-3.19,15.54-3.19V83l-7.59-6.15L92,70.68V55A105.36,105.36,0,0,1,79.9,52.4c-4.32-1.07-18.73-5.11-21-5.45s-5.06-.22-6.76,1.28a7,7,0,0,0-2.25,5,5.57,5.57,0,0,0,.23,1.63A7.23,7.23,0,0,0,52.2,57.8a6.38,6.38,0,0,1-2.36-1,11,11,0,0,1-5-8.8A14.57,14.57,0,0,1,50.88,35.1c3.7-2.36,7.88-3.89,12.76-3.21,7.1,1,16.63,5,25.14,7.08,3.29,0.79,5.86,1,8.16-.29,1.08-.77,3-2.78,1.43-5.46-1.81-3.11-5.28-3-8.22-3.6A12.69,12.69,0,0,1,95.14,29.28Zm-28.65,67V63.73l-9.8,4.39a32.23,32.23,0,0,0-2.07,13.7C55,88.14,58.5,95.73,61.23,98.89Z"/></svg>
