<svg xmlns:dc="http://purl.org/dc/elements/1.1/" xmlns:cc="http://creativecommons.org/ns#" xmlns:rdf="http://www.w3.org/1999/02/22-rdf-syntax-ns#" xmlns:svg="http://www.w3.org/2000/svg" xmlns="http://www.w3.org/2000/svg" xmlns:sodipodi="http://sodipodi.sourceforge.net/DTD/sodipodi-0.dtd" xmlns:inkscape="http://www.inkscape.org/namespaces/inkscape" version="1.1" id="Layer_1" x="0px" y="0px" width="145" height="75.741997" viewBox="77 18 70 10" enable-background="new 0 0 180 108" xml:space="preserve" inkscape:version="0.48.2 r9819" sodipodi:docname="AJAX1.svg">
<g id="g3" transform="translate(-17.5,-16.129002)">
	<g id="g7">
		<path d="m 109.579,24.924 v 7.534 c 0,1.724 -0.07,3.431 -1.403,4.728 -1.12,1.102 -2.88,1.492 -4.443,1.492 -1.563,0 -3.323,-0.391 -4.442,-1.492 -1.333,-1.297 -1.404,-3.004 -1.404,-4.728 v -7.534 h 3.483 v 7.055 c 0,1.742 0.125,3.643 2.363,3.643 2.239,0 2.364,-1.9 2.364,-3.643 v -7.055 h 3.482 z" id="path9" style="fill:#000000;stroke:none" inkscape:connector-curvature="0"/>
		<path d="m 119.136,28.371 c -0.64,-0.533 -1.458,-0.889 -2.311,-0.889 -0.64,0 -1.493,0.373 -1.493,1.119 0,0.782 0.942,1.084 1.546,1.279 l 0.889,0.268 c 1.866,0.551 3.305,1.492 3.305,3.66 0,1.333 -0.319,2.701 -1.385,3.607 -1.049,0.889 -2.453,1.262 -3.804,1.262 -1.688,0 -3.341,-0.568 -4.709,-1.528 l 1.493,-2.808 c 0.87,0.765 1.9,1.387 3.092,1.387 0.816,0 1.688,-0.409 1.688,-1.352 0,-0.977 -1.368,-1.314 -2.115,-1.528 -2.186,-0.622 -3.626,-1.19 -3.626,-3.784 0,-2.72 1.938,-4.497 4.621,-4.497 1.351,0 3.003,0.427 4.193,1.103 l -1.384,2.701 z" id="path11" style="fill:#000000;stroke:none" inkscape:connector-curvature="0"/>
		<path d="m 126.133,35.994 -0.924,2.328 h -3.697 l 5.154,-13.398 h 3.803 l 5.047,13.398 h -3.713 l -0.872,-2.328 h -4.798 z m 2.435,-6.93 h -0.036 l -1.439,4.264 h 2.896 l -1.421,-4.264 z" id="path13" style="fill:#000000;stroke:none" inkscape:connector-curvature="0"/>
		<path d="m 105.118,54.144 h -3.482 v -10.45 h -2.88 v -2.95 h 9.241 v 2.95 h -2.879 v 10.45 z" id="path15" style="fill:#000000;stroke:none" inkscape:connector-curvature="0"/>
		<path d="m 123.4,47.195 c 0,4.336 -3.109,7.393 -7.41,7.393 -4.301,0 -7.411,-3.057 -7.411,-7.393 0,-4.053 3.555,-6.896 7.411,-6.896 3.856,0 7.41,2.844 7.41,6.896 z m -11.195,0.018 c 0,2.311 1.705,3.998 3.785,3.998 2.079,0 3.785,-1.688 3.785,-3.998 0,-1.848 -1.706,-3.537 -3.785,-3.537 -2.08,0 -3.785,1.689 -3.785,3.537 z" id="path17" style="fill:#000000;stroke:none" inkscape:connector-curvature="0"/>
		<path d="m 125.011,40.744 h 4.94 c 3.732,0 6.806,2.932 6.806,6.699 0,3.767 -3.092,6.7 -6.806,6.7 h -4.94 V 40.744 z m 3.483,10.449 h 0.782 c 2.078,0 3.856,-1.137 3.856,-3.75 0,-2.398 -1.582,-3.749 -3.821,-3.749 h -0.817 v 7.499 z" id="path19" style="fill:#000000;stroke:none" inkscape:connector-curvature="0"/>
		<path d="m 141.781,51.816 -0.924,2.327 h -3.697 l 5.155,-13.399 h 3.802 l 5.047,13.399 h -3.713 l -0.872,-2.327 h -4.798 z m 2.436,-6.931 h -0.036 l -1.439,4.266 h 2.896 l -1.421,-4.266 z" id="path21" style="fill:#000000;stroke:none" inkscape:connector-curvature="0"/>
		<path d="m 148.637,40.744 h 4.176 l 2.506,3.643 2.507,-3.643 H 162 l -4.939,6.967 v 6.433 h -3.483 v -6.433 l -4.941,-6.967 z" id="path23" style="fill:#000000;stroke:none" inkscape:connector-curvature="0"/>
	</g>
</g>
</svg>
