<svg class="mw3--4 h2 o-30" xmlns="http://www.w3.org/2000/svg" viewBox="0 0 104 58"><path fill="#000" fill-rule="evenodd" d="M103.5 2.8h-1.3c-2 0-3 1-3 3.2v39.5c0 9-5.5 12.2-12.5 12.2-5 0-10-4.2-10-12.2 0-4.3 2.6-6 4.7-6 2.2 0 3.8 1.4 3.8 4 0 3.5-2 5-4.6 5.4 0 2.8 2.3 6.2 6 6.2 3.6 0 5-2 5-8.2V6c0-2.3-1.2-3.2-3-3.2H87v-2h16.6v2zm-29 40.8c0 10-6 14-13 14-5 0-7.4-1.6-9.8-3.3l-1.4 3H49V37.8h1.8v.6c0 13.7 6.7 16.8 10 16.8 5.3 0 7.5-3 7.5-9 0-6.5-4-11.3-9.8-15.7-5.2-4-10-9-10-17.3 0-8.5 5-13 11.3-13 5 0 7.5 2.2 9 3.4L70 .8h1.5v19.5h-2v-.5c0-10.6-3-17-9.2-17-4 0-6 2.8-6 7.3 0 5.4 3 8.4 8.8 13 6.5 5 11.4 10.3 11.4 20.6zM49.2 2.8h-.5c-2.7 0-4 .5-5 5.2L33.6 57.7h-3L24 25.2l-6.6 32.5h-3l-10-51C4 3.5 3 2.7.2 2.7H0v-2h15v2H15c-2.2 0-2.7 1-2.7 2.4 0 .4 0 1 .2 1.3L18.5 41 22.8 18l-2-11.5c-.6-2.8-1.3-4-3.5-4h-.4v-2h15v2h-.4c-2.8 0-3.3 1-3.3 3l.3 1.8 6.3 33h.2l6-33V6C41 4 40.2 3 37.3 3h-.5v-2h12.6v2z"/></svg>
